<mxfile host="Electron" modified="2023-07-31T13:24:53.928Z" agent="Mozilla/5.0 (X11; Linux x86_64) AppleWebKit/537.36 (KHTML, like Gecko) draw.io/21.6.5 Chrome/114.0.5735.243 Electron/25.3.1 Safari/537.36" etag="CgkxeuxguWzYcmvQbFl8" version="21.6.5" type="device">
  <diagram name="Page-1" id="jLN1ZQcb3Y0rFyo90S0E">
    <mxGraphModel dx="4976" dy="2702" grid="0" gridSize="10" guides="1" tooltips="1" connect="1" arrows="1" fold="1" page="1" pageScale="1" pageWidth="827" pageHeight="1169" background="none" math="0" shadow="0">
      <root>
        <mxCell id="0" />
        <mxCell id="1" parent="0" />
        <mxCell id="bVwXBUU_hTWqEYQEKctx-1" value="main" style="swimlane;whiteSpace=wrap;html=1;strokeWidth=3;" parent="1" vertex="1">
          <mxGeometry x="-2431" y="-790" width="276" height="666" as="geometry" />
        </mxCell>
        <mxCell id="o8baBilSk6e5a-lDwC_t-34" style="edgeStyle=orthogonalEdgeStyle;rounded=0;orthogonalLoop=1;jettySize=auto;html=1;exitX=0.5;exitY=1;exitDx=0;exitDy=0;entryX=0.5;entryY=0;entryDx=0;entryDy=0;" edge="1" parent="bVwXBUU_hTWqEYQEKctx-1" source="-6B5cMe8sq-w_s2lGf64-37" target="o8baBilSk6e5a-lDwC_t-33">
          <mxGeometry relative="1" as="geometry" />
        </mxCell>
        <mxCell id="-6B5cMe8sq-w_s2lGf64-37" value="init ROS node" style="rounded=1;whiteSpace=wrap;html=1;" parent="bVwXBUU_hTWqEYQEKctx-1" vertex="1">
          <mxGeometry x="17" y="40" width="120" height="40" as="geometry" />
        </mxCell>
        <mxCell id="o8baBilSk6e5a-lDwC_t-38" style="edgeStyle=orthogonalEdgeStyle;rounded=0;orthogonalLoop=1;jettySize=auto;html=1;exitX=0.5;exitY=1;exitDx=0;exitDy=0;entryX=0.5;entryY=0;entryDx=0;entryDy=0;" edge="1" parent="bVwXBUU_hTWqEYQEKctx-1" source="o8baBilSk6e5a-lDwC_t-33" target="o8baBilSk6e5a-lDwC_t-35">
          <mxGeometry relative="1" as="geometry" />
        </mxCell>
        <mxCell id="o8baBilSk6e5a-lDwC_t-33" value="get user input" style="rounded=1;whiteSpace=wrap;html=1;" vertex="1" parent="bVwXBUU_hTWqEYQEKctx-1">
          <mxGeometry x="17" y="101" width="120" height="40" as="geometry" />
        </mxCell>
        <mxCell id="o8baBilSk6e5a-lDwC_t-37" style="edgeStyle=orthogonalEdgeStyle;rounded=0;orthogonalLoop=1;jettySize=auto;html=1;exitX=0.5;exitY=1;exitDx=0;exitDy=0;entryX=0.5;entryY=0;entryDx=0;entryDy=0;" edge="1" parent="bVwXBUU_hTWqEYQEKctx-1" source="o8baBilSk6e5a-lDwC_t-35" target="o8baBilSk6e5a-lDwC_t-36">
          <mxGeometry relative="1" as="geometry" />
        </mxCell>
        <mxCell id="o8baBilSk6e5a-lDwC_t-35" value="for number of drones" style="rounded=1;whiteSpace=wrap;html=1;" vertex="1" parent="bVwXBUU_hTWqEYQEKctx-1">
          <mxGeometry x="17" y="162" width="120" height="40" as="geometry" />
        </mxCell>
        <mxCell id="o8baBilSk6e5a-lDwC_t-40" value="No" style="edgeStyle=orthogonalEdgeStyle;rounded=0;orthogonalLoop=1;jettySize=auto;html=1;exitX=1;exitY=0.5;exitDx=0;exitDy=0;entryX=0;entryY=0.5;entryDx=0;entryDy=0;" edge="1" parent="bVwXBUU_hTWqEYQEKctx-1" source="o8baBilSk6e5a-lDwC_t-36" target="o8baBilSk6e5a-lDwC_t-39">
          <mxGeometry relative="1" as="geometry" />
        </mxCell>
        <mxCell id="o8baBilSk6e5a-lDwC_t-59" value="Yes" style="edgeStyle=orthogonalEdgeStyle;rounded=0;orthogonalLoop=1;jettySize=auto;html=1;exitX=0.5;exitY=1;exitDx=0;exitDy=0;entryX=0.5;entryY=0;entryDx=0;entryDy=0;" edge="1" parent="bVwXBUU_hTWqEYQEKctx-1" source="o8baBilSk6e5a-lDwC_t-36" target="o8baBilSk6e5a-lDwC_t-44">
          <mxGeometry relative="1" as="geometry" />
        </mxCell>
        <mxCell id="o8baBilSk6e5a-lDwC_t-36" value="loop end" style="rhombus;whiteSpace=wrap;html=1;" vertex="1" parent="bVwXBUU_hTWqEYQEKctx-1">
          <mxGeometry x="41" y="225" width="72" height="51" as="geometry" />
        </mxCell>
        <mxCell id="o8baBilSk6e5a-lDwC_t-41" style="edgeStyle=orthogonalEdgeStyle;rounded=0;orthogonalLoop=1;jettySize=auto;html=1;exitX=0.5;exitY=0;exitDx=0;exitDy=0;entryX=0.5;entryY=0;entryDx=0;entryDy=0;" edge="1" parent="bVwXBUU_hTWqEYQEKctx-1" source="o8baBilSk6e5a-lDwC_t-39" target="o8baBilSk6e5a-lDwC_t-36">
          <mxGeometry relative="1" as="geometry">
            <Array as="points">
              <mxPoint x="201" y="211" />
              <mxPoint x="77" y="211" />
            </Array>
          </mxGeometry>
        </mxCell>
        <mxCell id="o8baBilSk6e5a-lDwC_t-42" style="edgeStyle=orthogonalEdgeStyle;rounded=0;orthogonalLoop=1;jettySize=auto;html=1;exitX=1;exitY=0.5;exitDx=0;exitDy=0;entryX=0;entryY=0.5;entryDx=0;entryDy=0;" edge="1" parent="bVwXBUU_hTWqEYQEKctx-1" source="o8baBilSk6e5a-lDwC_t-39" target="1Ua6vzqnVlYi796qYgmD-9">
          <mxGeometry relative="1" as="geometry" />
        </mxCell>
        <mxCell id="o8baBilSk6e5a-lDwC_t-39" value="instantiate drone" style="rounded=1;whiteSpace=wrap;html=1;" vertex="1" parent="bVwXBUU_hTWqEYQEKctx-1">
          <mxGeometry x="155" y="230.5" width="104" height="40" as="geometry" />
        </mxCell>
        <mxCell id="1Ua6vzqnVlYi796qYgmD-9" value="&lt;b style=&quot;font-size: 20px;&quot;&gt;A&lt;/b&gt;" style="ellipse;whiteSpace=wrap;html=1;aspect=fixed;fontSize=20;labelBackgroundColor=none;fillColor=#f5f5f5;fontColor=#333333;strokeColor=#666666;strokeWidth=2;" parent="bVwXBUU_hTWqEYQEKctx-1" vertex="1">
          <mxGeometry x="304" y="226.5" width="48" height="48" as="geometry" />
        </mxCell>
        <mxCell id="o8baBilSk6e5a-lDwC_t-44" value="for number of devices" style="rounded=1;whiteSpace=wrap;html=1;" vertex="1" parent="bVwXBUU_hTWqEYQEKctx-1">
          <mxGeometry x="17" y="310" width="120" height="40" as="geometry" />
        </mxCell>
        <mxCell id="o8baBilSk6e5a-lDwC_t-61" value="Yes" style="edgeStyle=orthogonalEdgeStyle;rounded=0;orthogonalLoop=1;jettySize=auto;html=1;exitX=0.5;exitY=1;exitDx=0;exitDy=0;entryX=0.5;entryY=0;entryDx=0;entryDy=0;" edge="1" parent="bVwXBUU_hTWqEYQEKctx-1" source="o8baBilSk6e5a-lDwC_t-46" target="o8baBilSk6e5a-lDwC_t-52">
          <mxGeometry relative="1" as="geometry" />
        </mxCell>
        <mxCell id="o8baBilSk6e5a-lDwC_t-46" value="loop end" style="rhombus;whiteSpace=wrap;html=1;" vertex="1" parent="bVwXBUU_hTWqEYQEKctx-1">
          <mxGeometry x="41" y="373" width="72" height="51" as="geometry" />
        </mxCell>
        <mxCell id="o8baBilSk6e5a-lDwC_t-43" style="edgeStyle=orthogonalEdgeStyle;rounded=0;orthogonalLoop=1;jettySize=auto;html=1;exitX=0.5;exitY=1;exitDx=0;exitDy=0;entryX=0.5;entryY=0;entryDx=0;entryDy=0;" edge="1" parent="bVwXBUU_hTWqEYQEKctx-1" source="o8baBilSk6e5a-lDwC_t-44" target="o8baBilSk6e5a-lDwC_t-46">
          <mxGeometry relative="1" as="geometry" />
        </mxCell>
        <mxCell id="o8baBilSk6e5a-lDwC_t-47" style="edgeStyle=orthogonalEdgeStyle;rounded=0;orthogonalLoop=1;jettySize=auto;html=1;exitX=0.5;exitY=0;exitDx=0;exitDy=0;entryX=0.5;entryY=0;entryDx=0;entryDy=0;" edge="1" parent="bVwXBUU_hTWqEYQEKctx-1" source="o8baBilSk6e5a-lDwC_t-49" target="o8baBilSk6e5a-lDwC_t-46">
          <mxGeometry relative="1" as="geometry">
            <Array as="points">
              <mxPoint x="201" y="359" />
              <mxPoint x="77" y="359" />
            </Array>
          </mxGeometry>
        </mxCell>
        <mxCell id="o8baBilSk6e5a-lDwC_t-49" value="instantiate device" style="rounded=1;whiteSpace=wrap;html=1;" vertex="1" parent="bVwXBUU_hTWqEYQEKctx-1">
          <mxGeometry x="155" y="378.5" width="104" height="40" as="geometry" />
        </mxCell>
        <mxCell id="o8baBilSk6e5a-lDwC_t-45" value="No" style="edgeStyle=orthogonalEdgeStyle;rounded=0;orthogonalLoop=1;jettySize=auto;html=1;exitX=1;exitY=0.5;exitDx=0;exitDy=0;entryX=0;entryY=0.5;entryDx=0;entryDy=0;" edge="1" parent="bVwXBUU_hTWqEYQEKctx-1" source="o8baBilSk6e5a-lDwC_t-46" target="o8baBilSk6e5a-lDwC_t-49">
          <mxGeometry relative="1" as="geometry" />
        </mxCell>
        <mxCell id="o8baBilSk6e5a-lDwC_t-50" value="&lt;b style=&quot;font-size: 20px;&quot;&gt;B&lt;/b&gt;" style="ellipse;whiteSpace=wrap;html=1;aspect=fixed;fontSize=20;labelBackgroundColor=none;fillColor=#f5f5f5;fontColor=#333333;strokeColor=#666666;strokeWidth=2;" vertex="1" parent="bVwXBUU_hTWqEYQEKctx-1">
          <mxGeometry x="304" y="374.5" width="48" height="48" as="geometry" />
        </mxCell>
        <mxCell id="o8baBilSk6e5a-lDwC_t-48" style="edgeStyle=orthogonalEdgeStyle;rounded=0;orthogonalLoop=1;jettySize=auto;html=1;exitX=1;exitY=0.5;exitDx=0;exitDy=0;entryX=0;entryY=0.5;entryDx=0;entryDy=0;" edge="1" parent="bVwXBUU_hTWqEYQEKctx-1" source="o8baBilSk6e5a-lDwC_t-49" target="o8baBilSk6e5a-lDwC_t-50">
          <mxGeometry relative="1" as="geometry" />
        </mxCell>
        <mxCell id="o8baBilSk6e5a-lDwC_t-52" value="for number of lora masters" style="rounded=1;whiteSpace=wrap;html=1;" vertex="1" parent="bVwXBUU_hTWqEYQEKctx-1">
          <mxGeometry x="17" y="458" width="120" height="40" as="geometry" />
        </mxCell>
        <mxCell id="o8baBilSk6e5a-lDwC_t-63" value="Yes" style="edgeStyle=orthogonalEdgeStyle;rounded=0;orthogonalLoop=1;jettySize=auto;html=1;exitX=0.5;exitY=1;exitDx=0;exitDy=0;entryX=0.5;entryY=0;entryDx=0;entryDy=0;" edge="1" parent="bVwXBUU_hTWqEYQEKctx-1" source="o8baBilSk6e5a-lDwC_t-54" target="o8baBilSk6e5a-lDwC_t-62">
          <mxGeometry relative="1" as="geometry" />
        </mxCell>
        <mxCell id="o8baBilSk6e5a-lDwC_t-54" value="loop end" style="rhombus;whiteSpace=wrap;html=1;" vertex="1" parent="bVwXBUU_hTWqEYQEKctx-1">
          <mxGeometry x="41" y="521" width="72" height="51" as="geometry" />
        </mxCell>
        <mxCell id="o8baBilSk6e5a-lDwC_t-51" style="edgeStyle=orthogonalEdgeStyle;rounded=0;orthogonalLoop=1;jettySize=auto;html=1;exitX=0.5;exitY=1;exitDx=0;exitDy=0;entryX=0.5;entryY=0;entryDx=0;entryDy=0;" edge="1" parent="bVwXBUU_hTWqEYQEKctx-1" source="o8baBilSk6e5a-lDwC_t-52" target="o8baBilSk6e5a-lDwC_t-54">
          <mxGeometry relative="1" as="geometry" />
        </mxCell>
        <mxCell id="o8baBilSk6e5a-lDwC_t-55" style="edgeStyle=orthogonalEdgeStyle;rounded=0;orthogonalLoop=1;jettySize=auto;html=1;exitX=0.5;exitY=0;exitDx=0;exitDy=0;entryX=0.5;entryY=0;entryDx=0;entryDy=0;" edge="1" parent="bVwXBUU_hTWqEYQEKctx-1" source="o8baBilSk6e5a-lDwC_t-57" target="o8baBilSk6e5a-lDwC_t-54">
          <mxGeometry relative="1" as="geometry">
            <Array as="points">
              <mxPoint x="201" y="507" />
              <mxPoint x="77" y="507" />
            </Array>
          </mxGeometry>
        </mxCell>
        <mxCell id="o8baBilSk6e5a-lDwC_t-57" value="instantiate lora master" style="rounded=1;whiteSpace=wrap;html=1;" vertex="1" parent="bVwXBUU_hTWqEYQEKctx-1">
          <mxGeometry x="155" y="526.5" width="104" height="40" as="geometry" />
        </mxCell>
        <mxCell id="o8baBilSk6e5a-lDwC_t-53" value="No" style="edgeStyle=orthogonalEdgeStyle;rounded=0;orthogonalLoop=1;jettySize=auto;html=1;exitX=1;exitY=0.5;exitDx=0;exitDy=0;entryX=0;entryY=0.5;entryDx=0;entryDy=0;" edge="1" parent="bVwXBUU_hTWqEYQEKctx-1" source="o8baBilSk6e5a-lDwC_t-54" target="o8baBilSk6e5a-lDwC_t-57">
          <mxGeometry relative="1" as="geometry" />
        </mxCell>
        <mxCell id="o8baBilSk6e5a-lDwC_t-58" value="&lt;b style=&quot;font-size: 20px;&quot;&gt;C&lt;/b&gt;" style="ellipse;whiteSpace=wrap;html=1;aspect=fixed;fontSize=20;labelBackgroundColor=none;fillColor=#f5f5f5;fontColor=#333333;strokeColor=#666666;strokeWidth=2;" vertex="1" parent="bVwXBUU_hTWqEYQEKctx-1">
          <mxGeometry x="304" y="522.5" width="48" height="48" as="geometry" />
        </mxCell>
        <mxCell id="o8baBilSk6e5a-lDwC_t-56" style="edgeStyle=orthogonalEdgeStyle;rounded=0;orthogonalLoop=1;jettySize=auto;html=1;exitX=1;exitY=0.5;exitDx=0;exitDy=0;entryX=0;entryY=0.5;entryDx=0;entryDy=0;" edge="1" parent="bVwXBUU_hTWqEYQEKctx-1" source="o8baBilSk6e5a-lDwC_t-57" target="o8baBilSk6e5a-lDwC_t-58">
          <mxGeometry relative="1" as="geometry" />
        </mxCell>
        <mxCell id="o8baBilSk6e5a-lDwC_t-62" value="rospy.spin" style="rounded=1;whiteSpace=wrap;html=1;" vertex="1" parent="bVwXBUU_hTWqEYQEKctx-1">
          <mxGeometry x="38" y="608" width="77" height="40" as="geometry" />
        </mxCell>
        <mxCell id="bVwXBUU_hTWqEYQEKctx-9" value="" style="ellipse;html=1;shape=startState;fillColor=#008a00;strokeColor=#000000;fontColor=#ffffff;strokeWidth=3;" parent="1" vertex="1">
          <mxGeometry x="-2328.5" y="-902" width="71" height="71" as="geometry" />
        </mxCell>
        <mxCell id="bVwXBUU_hTWqEYQEKctx-10" value="" style="edgeStyle=orthogonalEdgeStyle;html=1;verticalAlign=bottom;endArrow=open;endSize=8;strokeColor=#000500;rounded=0;entryX=0.5;entryY=0;entryDx=0;entryDy=0;exitX=0.503;exitY=0.936;exitDx=0;exitDy=0;exitPerimeter=0;fillColor=#008a00;strokeWidth=3;" parent="1" source="bVwXBUU_hTWqEYQEKctx-9" target="bVwXBUU_hTWqEYQEKctx-1" edge="1">
          <mxGeometry relative="1" as="geometry">
            <mxPoint x="-2358" y="-677" as="targetPoint" />
          </mxGeometry>
        </mxCell>
        <mxCell id="QlmAs7cy7dPPL5ENXr90-4" value="&lt;span style=&quot;border-color: var(--border-color);&quot;&gt;&lt;b style=&quot;border-color: var(--border-color);&quot;&gt;&lt;font style=&quot;font-size: 30px;&quot;&gt;Aiders Simulator&lt;/font&gt;&lt;/b&gt;&lt;/span&gt;" style="rounded=0;whiteSpace=wrap;html=1;strokeWidth=2;fillColor=#f5f5f5;fontColor=#333333;strokeColor=#666666;" parent="1" vertex="1">
          <mxGeometry x="-2458" y="-1149" width="775" height="48" as="geometry" />
        </mxCell>
        <mxCell id="QlmAs7cy7dPPL5ENXr90-30" value="getUserInput" style="swimlane;whiteSpace=wrap;html=1;strokeWidth=3;" parent="1" vertex="1">
          <mxGeometry x="-2025" y="-790" width="315" height="510" as="geometry" />
        </mxCell>
        <mxCell id="o8baBilSk6e5a-lDwC_t-17" style="edgeStyle=orthogonalEdgeStyle;rounded=0;orthogonalLoop=1;jettySize=auto;html=1;exitX=0.5;exitY=1;exitDx=0;exitDy=0;entryX=0.5;entryY=0;entryDx=0;entryDy=0;" edge="1" parent="QlmAs7cy7dPPL5ENXr90-30" source="QlmAs7cy7dPPL5ENXr90-31" target="o8baBilSk6e5a-lDwC_t-14">
          <mxGeometry relative="1" as="geometry" />
        </mxCell>
        <mxCell id="QlmAs7cy7dPPL5ENXr90-31" value="number of drones" style="rounded=1;whiteSpace=wrap;html=1;" parent="QlmAs7cy7dPPL5ENXr90-30" vertex="1">
          <mxGeometry x="16" y="40" width="115.5" height="40" as="geometry" />
        </mxCell>
        <mxCell id="o8baBilSk6e5a-lDwC_t-14" value="is 0" style="rhombus;whiteSpace=wrap;html=1;" vertex="1" parent="QlmAs7cy7dPPL5ENXr90-30">
          <mxGeometry x="52" y="101" width="44" height="23" as="geometry" />
        </mxCell>
        <mxCell id="o8baBilSk6e5a-lDwC_t-10" value="device data frequency" style="rounded=1;whiteSpace=wrap;html=1;" vertex="1" parent="QlmAs7cy7dPPL5ENXr90-30">
          <mxGeometry x="167" y="213" width="135" height="40" as="geometry" />
        </mxCell>
        <mxCell id="o8baBilSk6e5a-lDwC_t-28" style="edgeStyle=orthogonalEdgeStyle;rounded=0;orthogonalLoop=1;jettySize=auto;html=1;exitX=0.5;exitY=1;exitDx=0;exitDy=0;entryX=0.5;entryY=0;entryDx=0;entryDy=0;" edge="1" parent="QlmAs7cy7dPPL5ENXr90-30" source="o8baBilSk6e5a-lDwC_t-12" target="o8baBilSk6e5a-lDwC_t-13">
          <mxGeometry relative="1" as="geometry" />
        </mxCell>
        <mxCell id="o8baBilSk6e5a-lDwC_t-12" value="number of lora clients per master" style="rounded=1;whiteSpace=wrap;html=1;" vertex="1" parent="QlmAs7cy7dPPL5ENXr90-30">
          <mxGeometry x="167" y="334" width="135" height="40" as="geometry" />
        </mxCell>
        <mxCell id="o8baBilSk6e5a-lDwC_t-31" style="edgeStyle=orthogonalEdgeStyle;rounded=0;orthogonalLoop=1;jettySize=auto;html=1;exitX=0.5;exitY=1;exitDx=0;exitDy=0;entryX=1;entryY=0.5;entryDx=0;entryDy=0;" edge="1" parent="QlmAs7cy7dPPL5ENXr90-30" source="o8baBilSk6e5a-lDwC_t-13" target="o8baBilSk6e5a-lDwC_t-29">
          <mxGeometry relative="1" as="geometry" />
        </mxCell>
        <mxCell id="o8baBilSk6e5a-lDwC_t-13" value="lora data frequency" style="rounded=1;whiteSpace=wrap;html=1;" vertex="1" parent="QlmAs7cy7dPPL5ENXr90-30">
          <mxGeometry x="167" y="395" width="135" height="40" as="geometry" />
        </mxCell>
        <mxCell id="o8baBilSk6e5a-lDwC_t-29" value="return user input" style="rounded=1;whiteSpace=wrap;html=1;" vertex="1" parent="QlmAs7cy7dPPL5ENXr90-30">
          <mxGeometry x="18.5" y="453" width="111" height="40" as="geometry" />
        </mxCell>
        <mxCell id="o8baBilSk6e5a-lDwC_t-9" value="number of devices" style="rounded=1;whiteSpace=wrap;html=1;" vertex="1" parent="QlmAs7cy7dPPL5ENXr90-30">
          <mxGeometry x="14" y="160" width="120" height="40" as="geometry" />
        </mxCell>
        <mxCell id="o8baBilSk6e5a-lDwC_t-15" value="Yes" style="edgeStyle=orthogonalEdgeStyle;rounded=0;orthogonalLoop=1;jettySize=auto;html=1;exitX=0.5;exitY=1;exitDx=0;exitDy=0;entryX=0.5;entryY=0;entryDx=0;entryDy=0;" edge="1" parent="QlmAs7cy7dPPL5ENXr90-30" source="o8baBilSk6e5a-lDwC_t-14" target="o8baBilSk6e5a-lDwC_t-9">
          <mxGeometry relative="1" as="geometry" />
        </mxCell>
        <mxCell id="o8baBilSk6e5a-lDwC_t-8" value="drone data frequency" style="rounded=1;whiteSpace=wrap;html=1;" vertex="1" parent="QlmAs7cy7dPPL5ENXr90-30">
          <mxGeometry x="167" y="92.5" width="134" height="40" as="geometry" />
        </mxCell>
        <mxCell id="o8baBilSk6e5a-lDwC_t-16" value="No" style="edgeStyle=orthogonalEdgeStyle;rounded=0;orthogonalLoop=1;jettySize=auto;html=1;exitX=1;exitY=0.5;exitDx=0;exitDy=0;entryX=0;entryY=0.5;entryDx=0;entryDy=0;" edge="1" parent="QlmAs7cy7dPPL5ENXr90-30" source="o8baBilSk6e5a-lDwC_t-14" target="o8baBilSk6e5a-lDwC_t-8">
          <mxGeometry relative="1" as="geometry" />
        </mxCell>
        <mxCell id="o8baBilSk6e5a-lDwC_t-18" style="edgeStyle=orthogonalEdgeStyle;rounded=0;orthogonalLoop=1;jettySize=auto;html=1;exitX=0.5;exitY=1;exitDx=0;exitDy=0;entryX=1;entryY=0.5;entryDx=0;entryDy=0;" edge="1" parent="QlmAs7cy7dPPL5ENXr90-30" source="o8baBilSk6e5a-lDwC_t-8" target="o8baBilSk6e5a-lDwC_t-9">
          <mxGeometry relative="1" as="geometry" />
        </mxCell>
        <mxCell id="o8baBilSk6e5a-lDwC_t-19" value="is 0" style="rhombus;whiteSpace=wrap;html=1;" vertex="1" parent="QlmAs7cy7dPPL5ENXr90-30">
          <mxGeometry x="52" y="221.5" width="44" height="23" as="geometry" />
        </mxCell>
        <mxCell id="o8baBilSk6e5a-lDwC_t-20" style="edgeStyle=orthogonalEdgeStyle;rounded=0;orthogonalLoop=1;jettySize=auto;html=1;exitX=0.5;exitY=1;exitDx=0;exitDy=0;entryX=0.5;entryY=0;entryDx=0;entryDy=0;" edge="1" parent="QlmAs7cy7dPPL5ENXr90-30" source="o8baBilSk6e5a-lDwC_t-9" target="o8baBilSk6e5a-lDwC_t-19">
          <mxGeometry relative="1" as="geometry" />
        </mxCell>
        <mxCell id="o8baBilSk6e5a-lDwC_t-22" value="No" style="edgeStyle=orthogonalEdgeStyle;rounded=0;orthogonalLoop=1;jettySize=auto;html=1;exitX=1;exitY=0.5;exitDx=0;exitDy=0;entryX=0;entryY=0.5;entryDx=0;entryDy=0;" edge="1" parent="QlmAs7cy7dPPL5ENXr90-30" source="o8baBilSk6e5a-lDwC_t-19" target="o8baBilSk6e5a-lDwC_t-10">
          <mxGeometry relative="1" as="geometry" />
        </mxCell>
        <mxCell id="o8baBilSk6e5a-lDwC_t-25" value="is 0" style="rhombus;whiteSpace=wrap;html=1;" vertex="1" parent="QlmAs7cy7dPPL5ENXr90-30">
          <mxGeometry x="52" y="342.5" width="44" height="23" as="geometry" />
        </mxCell>
        <mxCell id="o8baBilSk6e5a-lDwC_t-26" value="No" style="edgeStyle=orthogonalEdgeStyle;rounded=0;orthogonalLoop=1;jettySize=auto;html=1;exitX=1;exitY=0.5;exitDx=0;exitDy=0;" edge="1" parent="QlmAs7cy7dPPL5ENXr90-30" source="o8baBilSk6e5a-lDwC_t-25" target="o8baBilSk6e5a-lDwC_t-12">
          <mxGeometry relative="1" as="geometry" />
        </mxCell>
        <mxCell id="o8baBilSk6e5a-lDwC_t-30" value="Yes" style="edgeStyle=orthogonalEdgeStyle;rounded=0;orthogonalLoop=1;jettySize=auto;html=1;exitX=0.5;exitY=1;exitDx=0;exitDy=0;entryX=0.5;entryY=0;entryDx=0;entryDy=0;" edge="1" parent="QlmAs7cy7dPPL5ENXr90-30" source="o8baBilSk6e5a-lDwC_t-25" target="o8baBilSk6e5a-lDwC_t-29">
          <mxGeometry relative="1" as="geometry" />
        </mxCell>
        <mxCell id="o8baBilSk6e5a-lDwC_t-11" value="number of lora masters" style="rounded=1;whiteSpace=wrap;html=1;" vertex="1" parent="QlmAs7cy7dPPL5ENXr90-30">
          <mxGeometry x="14" y="281" width="121" height="40" as="geometry" />
        </mxCell>
        <mxCell id="o8baBilSk6e5a-lDwC_t-27" style="edgeStyle=orthogonalEdgeStyle;rounded=0;orthogonalLoop=1;jettySize=auto;html=1;exitX=0.5;exitY=1;exitDx=0;exitDy=0;entryX=0.5;entryY=0;entryDx=0;entryDy=0;" edge="1" parent="QlmAs7cy7dPPL5ENXr90-30" source="o8baBilSk6e5a-lDwC_t-11" target="o8baBilSk6e5a-lDwC_t-25">
          <mxGeometry relative="1" as="geometry" />
        </mxCell>
        <mxCell id="o8baBilSk6e5a-lDwC_t-23" style="edgeStyle=orthogonalEdgeStyle;rounded=0;orthogonalLoop=1;jettySize=auto;html=1;exitX=0.5;exitY=1;exitDx=0;exitDy=0;entryX=1;entryY=0.5;entryDx=0;entryDy=0;" edge="1" parent="QlmAs7cy7dPPL5ENXr90-30" source="o8baBilSk6e5a-lDwC_t-10" target="o8baBilSk6e5a-lDwC_t-11">
          <mxGeometry relative="1" as="geometry" />
        </mxCell>
        <mxCell id="o8baBilSk6e5a-lDwC_t-21" value="Yes" style="edgeStyle=orthogonalEdgeStyle;rounded=0;orthogonalLoop=1;jettySize=auto;html=1;exitX=0.5;exitY=1;exitDx=0;exitDy=0;entryX=0.5;entryY=0;entryDx=0;entryDy=0;" edge="1" parent="QlmAs7cy7dPPL5ENXr90-30" source="o8baBilSk6e5a-lDwC_t-19" target="o8baBilSk6e5a-lDwC_t-11">
          <mxGeometry relative="1" as="geometry" />
        </mxCell>
        <mxCell id="QlmAs7cy7dPPL5ENXr90-125" value="apt packages" style="swimlane;fontStyle=0;childLayout=stackLayout;horizontal=1;startSize=30;horizontalStack=0;resizeParent=1;resizeParentMax=0;resizeLast=0;collapsible=1;marginBottom=0;whiteSpace=wrap;html=1;fillColor=#f5f5f5;fontColor=#333333;strokeColor=#666666;strokeWidth=2;" parent="1" vertex="1">
          <mxGeometry x="-2428" y="-1073" width="277" height="120" as="geometry" />
        </mxCell>
        <mxCell id="o8baBilSk6e5a-lDwC_t-3" value="&lt;div&gt;ros-noetic-gps-common&lt;/div&gt;" style="text;strokeColor=none;fillColor=none;align=left;verticalAlign=middle;spacingLeft=4;spacingRight=4;overflow=hidden;points=[[0,0.5],[1,0.5]];portConstraint=eastwest;rotatable=0;whiteSpace=wrap;html=1;fontFamily=Courier New;" vertex="1" parent="QlmAs7cy7dPPL5ENXr90-125">
          <mxGeometry y="30" width="277" height="30" as="geometry" />
        </mxCell>
        <mxCell id="QlmAs7cy7dPPL5ENXr90-126" value="&lt;font face=&quot;Courier New&quot;&gt;python3&lt;/font&gt;" style="text;strokeColor=none;fillColor=none;align=left;verticalAlign=middle;spacingLeft=4;spacingRight=4;overflow=hidden;points=[[0,0.5],[1,0.5]];portConstraint=eastwest;rotatable=0;whiteSpace=wrap;html=1;" parent="QlmAs7cy7dPPL5ENXr90-125" vertex="1">
          <mxGeometry y="60" width="277" height="30" as="geometry" />
        </mxCell>
        <mxCell id="QlmAs7cy7dPPL5ENXr90-127" value="&lt;div&gt;python3-rospy&lt;/div&gt;" style="text;strokeColor=none;fillColor=none;align=left;verticalAlign=middle;spacingLeft=4;spacingRight=4;overflow=hidden;points=[[0,0.5],[1,0.5]];portConstraint=eastwest;rotatable=0;whiteSpace=wrap;html=1;fontFamily=Courier New;" parent="QlmAs7cy7dPPL5ENXr90-125" vertex="1">
          <mxGeometry y="90" width="277" height="30" as="geometry" />
        </mxCell>
        <mxCell id="QlmAs7cy7dPPL5ENXr90-138" value="entrypoint" style="swimlane;fontStyle=0;childLayout=stackLayout;horizontal=1;startSize=30;horizontalStack=0;resizeParent=1;resizeParentMax=0;resizeLast=0;collapsible=1;marginBottom=0;whiteSpace=wrap;html=1;fillColor=#f5f5f5;fontColor=#333333;strokeColor=#666666;strokeWidth=2;" parent="1" vertex="1">
          <mxGeometry x="-2125" y="-1073" width="410" height="120" as="geometry" />
        </mxCell>
        <mxCell id="o8baBilSk6e5a-lDwC_t-6" value="source /opt/ros/noetic/setup.bash" style="text;strokeColor=none;fillColor=none;align=left;verticalAlign=middle;spacingLeft=4;spacingRight=4;overflow=hidden;points=[[0,0.5],[1,0.5]];portConstraint=eastwest;rotatable=0;whiteSpace=wrap;html=1;fontFamily=Courier New;" vertex="1" parent="QlmAs7cy7dPPL5ENXr90-138">
          <mxGeometry y="30" width="410" height="30" as="geometry" />
        </mxCell>
        <mxCell id="o8baBilSk6e5a-lDwC_t-7" value="source /opt/ros_ws/devel/setup.bash" style="text;strokeColor=none;fillColor=none;align=left;verticalAlign=middle;spacingLeft=4;spacingRight=4;overflow=hidden;points=[[0,0.5],[1,0.5]];portConstraint=eastwest;rotatable=0;whiteSpace=wrap;html=1;fontFamily=Courier New;" vertex="1" parent="QlmAs7cy7dPPL5ENXr90-138">
          <mxGeometry y="60" width="410" height="30" as="geometry" />
        </mxCell>
        <mxCell id="QlmAs7cy7dPPL5ENXr90-145" value="python /app/main.py" style="text;strokeColor=none;fillColor=none;align=left;verticalAlign=middle;spacingLeft=4;spacingRight=4;overflow=hidden;points=[[0,0.5],[1,0.5]];portConstraint=eastwest;rotatable=0;whiteSpace=wrap;html=1;fontFamily=Courier New;" parent="QlmAs7cy7dPPL5ENXr90-138" vertex="1">
          <mxGeometry y="90" width="410" height="30" as="geometry" />
        </mxCell>
        <mxCell id="o8baBilSk6e5a-lDwC_t-99" style="edgeStyle=orthogonalEdgeStyle;rounded=0;orthogonalLoop=1;jettySize=auto;html=1;exitX=0.5;exitY=1;exitDx=0;exitDy=0;entryX=0.5;entryY=0;entryDx=0;entryDy=0;" edge="1" parent="1" target="o8baBilSk6e5a-lDwC_t-66">
          <mxGeometry relative="1" as="geometry">
            <mxPoint x="-1441.5" y="-1060" as="sourcePoint" />
          </mxGeometry>
        </mxCell>
        <mxCell id="1Ua6vzqnVlYi796qYgmD-15" value="&lt;b style=&quot;font-size: 20px;&quot;&gt;A&lt;/b&gt;" style="ellipse;whiteSpace=wrap;html=1;aspect=fixed;fontSize=20;labelBackgroundColor=none;fillColor=#f5f5f5;fontColor=#333333;strokeColor=#666666;strokeWidth=2;" parent="1" vertex="1">
          <mxGeometry x="-1465.5" y="-1108" width="48" height="48" as="geometry" />
        </mxCell>
        <mxCell id="o8baBilSk6e5a-lDwC_t-24" style="edgeStyle=orthogonalEdgeStyle;rounded=0;orthogonalLoop=1;jettySize=auto;html=1;exitX=1;exitY=0.25;exitDx=0;exitDy=0;" edge="1" parent="1" source="o8baBilSk6e5a-lDwC_t-33">
          <mxGeometry relative="1" as="geometry">
            <mxPoint x="-2025" y="-679" as="targetPoint" />
            <Array as="points">
              <mxPoint x="-2025" y="-679" />
            </Array>
          </mxGeometry>
        </mxCell>
        <mxCell id="o8baBilSk6e5a-lDwC_t-32" style="edgeStyle=orthogonalEdgeStyle;rounded=0;orthogonalLoop=1;jettySize=auto;html=1;exitX=0;exitY=0.5;exitDx=0;exitDy=0;entryX=1;entryY=0.75;entryDx=0;entryDy=0;" edge="1" parent="1" source="o8baBilSk6e5a-lDwC_t-29" target="o8baBilSk6e5a-lDwC_t-33">
          <mxGeometry relative="1" as="geometry">
            <Array as="points">
              <mxPoint x="-2048" y="-317" />
              <mxPoint x="-2048" y="-659" />
            </Array>
          </mxGeometry>
        </mxCell>
        <mxCell id="o8baBilSk6e5a-lDwC_t-66" value="Drone.start" style="swimlane;whiteSpace=wrap;html=1;strokeWidth=3;fillColor=#ffe6cc;strokeColor=#d79b00;startSize=23;" vertex="1" parent="1">
          <mxGeometry x="-1612" y="-1030" width="341" height="836" as="geometry" />
        </mxCell>
        <mxCell id="o8baBilSk6e5a-lDwC_t-102" style="edgeStyle=orthogonalEdgeStyle;rounded=0;orthogonalLoop=1;jettySize=auto;html=1;exitX=0.5;exitY=1;exitDx=0;exitDy=0;entryX=0.5;entryY=0;entryDx=0;entryDy=0;" edge="1" parent="o8baBilSk6e5a-lDwC_t-66" source="o8baBilSk6e5a-lDwC_t-68" target="o8baBilSk6e5a-lDwC_t-100">
          <mxGeometry relative="1" as="geometry" />
        </mxCell>
        <mxCell id="o8baBilSk6e5a-lDwC_t-68" value="subscribe to /{droneName}/handshake" style="rounded=1;whiteSpace=wrap;html=1;" vertex="1" parent="o8baBilSk6e5a-lDwC_t-66">
          <mxGeometry x="17" y="41" width="155" height="40" as="geometry" />
        </mxCell>
        <mxCell id="o8baBilSk6e5a-lDwC_t-103" style="edgeStyle=orthogonalEdgeStyle;rounded=0;orthogonalLoop=1;jettySize=auto;html=1;exitX=0.5;exitY=1;exitDx=0;exitDy=0;entryX=0.5;entryY=0;entryDx=0;entryDy=0;" edge="1" parent="o8baBilSk6e5a-lDwC_t-66" source="o8baBilSk6e5a-lDwC_t-100" target="o8baBilSk6e5a-lDwC_t-101">
          <mxGeometry relative="1" as="geometry" />
        </mxCell>
        <mxCell id="o8baBilSk6e5a-lDwC_t-100" value="while not connected" style="rounded=1;whiteSpace=wrap;html=1;" vertex="1" parent="o8baBilSk6e5a-lDwC_t-66">
          <mxGeometry x="30.5" y="109" width="128" height="40" as="geometry" />
        </mxCell>
        <mxCell id="o8baBilSk6e5a-lDwC_t-105" value="No" style="edgeStyle=orthogonalEdgeStyle;rounded=0;orthogonalLoop=1;jettySize=auto;html=1;exitX=1;exitY=0.5;exitDx=0;exitDy=0;entryX=0;entryY=0.5;entryDx=0;entryDy=0;" edge="1" parent="o8baBilSk6e5a-lDwC_t-66" source="o8baBilSk6e5a-lDwC_t-101" target="o8baBilSk6e5a-lDwC_t-104">
          <mxGeometry relative="1" as="geometry" />
        </mxCell>
        <mxCell id="o8baBilSk6e5a-lDwC_t-108" value="Yes" style="edgeStyle=orthogonalEdgeStyle;rounded=0;orthogonalLoop=1;jettySize=auto;html=1;exitX=0.5;exitY=1;exitDx=0;exitDy=0;entryX=0.5;entryY=0;entryDx=0;entryDy=0;" edge="1" parent="o8baBilSk6e5a-lDwC_t-66" source="o8baBilSk6e5a-lDwC_t-101" target="o8baBilSk6e5a-lDwC_t-123">
          <mxGeometry relative="1" as="geometry" />
        </mxCell>
        <mxCell id="o8baBilSk6e5a-lDwC_t-101" value="handshake received" style="rhombus;whiteSpace=wrap;html=1;" vertex="1" parent="o8baBilSk6e5a-lDwC_t-66">
          <mxGeometry x="45" y="217" width="99" height="80" as="geometry" />
        </mxCell>
        <mxCell id="o8baBilSk6e5a-lDwC_t-121" style="edgeStyle=orthogonalEdgeStyle;rounded=0;orthogonalLoop=1;jettySize=auto;html=1;exitX=0.5;exitY=0;exitDx=0;exitDy=0;entryX=0.5;entryY=1;entryDx=0;entryDy=0;" edge="1" parent="o8baBilSk6e5a-lDwC_t-66" source="o8baBilSk6e5a-lDwC_t-104" target="o8baBilSk6e5a-lDwC_t-120">
          <mxGeometry relative="1" as="geometry" />
        </mxCell>
        <mxCell id="o8baBilSk6e5a-lDwC_t-104" value="publish message to /droneIds" style="rounded=1;whiteSpace=wrap;html=1;" vertex="1" parent="o8baBilSk6e5a-lDwC_t-66">
          <mxGeometry x="188" y="237" width="127" height="40" as="geometry" />
        </mxCell>
        <mxCell id="o8baBilSk6e5a-lDwC_t-112" style="edgeStyle=orthogonalEdgeStyle;rounded=0;orthogonalLoop=1;jettySize=auto;html=1;exitX=0.5;exitY=1;exitDx=0;exitDy=0;entryX=0.5;entryY=0;entryDx=0;entryDy=0;" edge="1" parent="o8baBilSk6e5a-lDwC_t-66" source="o8baBilSk6e5a-lDwC_t-107" target="o8baBilSk6e5a-lDwC_t-109">
          <mxGeometry relative="1" as="geometry" />
        </mxCell>
        <mxCell id="o8baBilSk6e5a-lDwC_t-107" value="while connected" style="rounded=1;whiteSpace=wrap;html=1;" vertex="1" parent="o8baBilSk6e5a-lDwC_t-66">
          <mxGeometry x="30.5" y="417" width="128" height="40" as="geometry" />
        </mxCell>
        <mxCell id="o8baBilSk6e5a-lDwC_t-113" style="edgeStyle=orthogonalEdgeStyle;rounded=0;orthogonalLoop=1;jettySize=auto;html=1;exitX=0.5;exitY=1;exitDx=0;exitDy=0;entryX=0.5;entryY=0;entryDx=0;entryDy=0;" edge="1" parent="o8baBilSk6e5a-lDwC_t-66" source="o8baBilSk6e5a-lDwC_t-109" target="o8baBilSk6e5a-lDwC_t-110">
          <mxGeometry relative="1" as="geometry" />
        </mxCell>
        <mxCell id="o8baBilSk6e5a-lDwC_t-109" value="randomize step size" style="rounded=1;whiteSpace=wrap;html=1;" vertex="1" parent="o8baBilSk6e5a-lDwC_t-66">
          <mxGeometry x="30.5" y="499" width="128" height="40" as="geometry" />
        </mxCell>
        <mxCell id="o8baBilSk6e5a-lDwC_t-114" style="edgeStyle=orthogonalEdgeStyle;rounded=0;orthogonalLoop=1;jettySize=auto;html=1;exitX=0.5;exitY=1;exitDx=0;exitDy=0;entryX=0.5;entryY=0;entryDx=0;entryDy=0;" edge="1" parent="o8baBilSk6e5a-lDwC_t-66" source="o8baBilSk6e5a-lDwC_t-110" target="o8baBilSk6e5a-lDwC_t-111">
          <mxGeometry relative="1" as="geometry" />
        </mxCell>
        <mxCell id="o8baBilSk6e5a-lDwC_t-110" value="randomize move direction" style="rounded=1;whiteSpace=wrap;html=1;" vertex="1" parent="o8baBilSk6e5a-lDwC_t-66">
          <mxGeometry x="30.5" y="564" width="128" height="40" as="geometry" />
        </mxCell>
        <mxCell id="o8baBilSk6e5a-lDwC_t-117" style="edgeStyle=orthogonalEdgeStyle;rounded=0;orthogonalLoop=1;jettySize=auto;html=1;exitX=0.5;exitY=1;exitDx=0;exitDy=0;entryX=0.5;entryY=0;entryDx=0;entryDy=0;" edge="1" parent="o8baBilSk6e5a-lDwC_t-66" source="o8baBilSk6e5a-lDwC_t-111" target="o8baBilSk6e5a-lDwC_t-115">
          <mxGeometry relative="1" as="geometry">
            <mxPoint x="94.5" y="693.9999999999998" as="targetPoint" />
          </mxGeometry>
        </mxCell>
        <mxCell id="o8baBilSk6e5a-lDwC_t-111" value="randomize heading" style="rounded=1;whiteSpace=wrap;html=1;" vertex="1" parent="o8baBilSk6e5a-lDwC_t-66">
          <mxGeometry x="30.5" y="629" width="128" height="40" as="geometry" />
        </mxCell>
        <mxCell id="o8baBilSk6e5a-lDwC_t-118" style="edgeStyle=orthogonalEdgeStyle;rounded=0;orthogonalLoop=1;jettySize=auto;html=1;exitX=0.5;exitY=1;exitDx=0;exitDy=0;entryX=0.5;entryY=0;entryDx=0;entryDy=0;" edge="1" parent="o8baBilSk6e5a-lDwC_t-66" target="o8baBilSk6e5a-lDwC_t-116">
          <mxGeometry relative="1" as="geometry">
            <mxPoint x="94.5" y="746" as="sourcePoint" />
          </mxGeometry>
        </mxCell>
        <mxCell id="o8baBilSk6e5a-lDwC_t-115" value="publish telemetry message in /{droneName}/Telemetry" style="rounded=1;whiteSpace=wrap;html=1;" vertex="1" parent="o8baBilSk6e5a-lDwC_t-66">
          <mxGeometry x="24.25" y="695" width="140.5" height="52" as="geometry" />
        </mxCell>
        <mxCell id="o8baBilSk6e5a-lDwC_t-119" style="edgeStyle=orthogonalEdgeStyle;rounded=0;orthogonalLoop=1;jettySize=auto;html=1;exitX=1;exitY=0.5;exitDx=0;exitDy=0;entryX=0.5;entryY=0;entryDx=0;entryDy=0;" edge="1" parent="o8baBilSk6e5a-lDwC_t-66" source="o8baBilSk6e5a-lDwC_t-116" target="o8baBilSk6e5a-lDwC_t-109">
          <mxGeometry relative="1" as="geometry">
            <Array as="points">
              <mxPoint x="253" y="789" />
              <mxPoint x="253" y="477" />
              <mxPoint x="95" y="477" />
            </Array>
          </mxGeometry>
        </mxCell>
        <mxCell id="o8baBilSk6e5a-lDwC_t-116" value="rate.sleep" style="rounded=1;whiteSpace=wrap;html=1;" vertex="1" parent="o8baBilSk6e5a-lDwC_t-66">
          <mxGeometry x="30.5" y="773" width="128" height="40" as="geometry" />
        </mxCell>
        <mxCell id="o8baBilSk6e5a-lDwC_t-122" style="edgeStyle=orthogonalEdgeStyle;rounded=0;orthogonalLoop=1;jettySize=auto;html=1;exitX=0;exitY=0.5;exitDx=0;exitDy=0;entryX=0.5;entryY=0;entryDx=0;entryDy=0;" edge="1" parent="o8baBilSk6e5a-lDwC_t-66" source="o8baBilSk6e5a-lDwC_t-120" target="o8baBilSk6e5a-lDwC_t-101">
          <mxGeometry relative="1" as="geometry" />
        </mxCell>
        <mxCell id="o8baBilSk6e5a-lDwC_t-120" value="rate.sleep" style="rounded=1;whiteSpace=wrap;html=1;" vertex="1" parent="o8baBilSk6e5a-lDwC_t-66">
          <mxGeometry x="188" y="170" width="127" height="40" as="geometry" />
        </mxCell>
        <mxCell id="o8baBilSk6e5a-lDwC_t-124" style="edgeStyle=orthogonalEdgeStyle;rounded=0;orthogonalLoop=1;jettySize=auto;html=1;exitX=0.5;exitY=1;exitDx=0;exitDy=0;entryX=0.5;entryY=0;entryDx=0;entryDy=0;" edge="1" parent="o8baBilSk6e5a-lDwC_t-66" source="o8baBilSk6e5a-lDwC_t-123" target="o8baBilSk6e5a-lDwC_t-107">
          <mxGeometry relative="1" as="geometry" />
        </mxCell>
        <mxCell id="o8baBilSk6e5a-lDwC_t-123" value="connected = True" style="rounded=1;whiteSpace=wrap;html=1;" vertex="1" parent="o8baBilSk6e5a-lDwC_t-66">
          <mxGeometry x="30.5" y="342" width="128" height="40" as="geometry" />
        </mxCell>
        <mxCell id="o8baBilSk6e5a-lDwC_t-125" style="edgeStyle=orthogonalEdgeStyle;rounded=0;orthogonalLoop=1;jettySize=auto;html=1;exitX=0.5;exitY=1;exitDx=0;exitDy=0;entryX=0.5;entryY=0;entryDx=0;entryDy=0;" edge="1" parent="1" source="o8baBilSk6e5a-lDwC_t-126" target="o8baBilSk6e5a-lDwC_t-127">
          <mxGeometry relative="1" as="geometry" />
        </mxCell>
        <mxCell id="o8baBilSk6e5a-lDwC_t-126" value="&lt;b style=&quot;font-size: 20px;&quot;&gt;B&lt;/b&gt;" style="ellipse;whiteSpace=wrap;html=1;aspect=fixed;fontSize=20;labelBackgroundColor=none;fillColor=#f5f5f5;fontColor=#333333;strokeColor=#666666;strokeWidth=2;" vertex="1" parent="1">
          <mxGeometry x="-1073" y="-1108" width="48" height="48" as="geometry" />
        </mxCell>
        <mxCell id="o8baBilSk6e5a-lDwC_t-127" value="Device.start" style="swimlane;whiteSpace=wrap;html=1;strokeWidth=3;fillColor=#ffe6cc;strokeColor=#d79b00;startSize=23;" vertex="1" parent="1">
          <mxGeometry x="-1230" y="-1030" width="362" height="778" as="geometry" />
        </mxCell>
        <mxCell id="o8baBilSk6e5a-lDwC_t-128" style="edgeStyle=orthogonalEdgeStyle;rounded=0;orthogonalLoop=1;jettySize=auto;html=1;exitX=0.5;exitY=1;exitDx=0;exitDy=0;entryX=0.5;entryY=0;entryDx=0;entryDy=0;" edge="1" parent="o8baBilSk6e5a-lDwC_t-127" source="o8baBilSk6e5a-lDwC_t-129" target="o8baBilSk6e5a-lDwC_t-131">
          <mxGeometry relative="1" as="geometry" />
        </mxCell>
        <mxCell id="o8baBilSk6e5a-lDwC_t-129" value="subscribe to /{deviceName}/handshake" style="rounded=1;whiteSpace=wrap;html=1;" vertex="1" parent="o8baBilSk6e5a-lDwC_t-127">
          <mxGeometry x="37" y="41" width="155" height="40" as="geometry" />
        </mxCell>
        <mxCell id="o8baBilSk6e5a-lDwC_t-130" style="edgeStyle=orthogonalEdgeStyle;rounded=0;orthogonalLoop=1;jettySize=auto;html=1;exitX=0.5;exitY=1;exitDx=0;exitDy=0;entryX=0.5;entryY=0;entryDx=0;entryDy=0;" edge="1" parent="o8baBilSk6e5a-lDwC_t-127" source="o8baBilSk6e5a-lDwC_t-131" target="o8baBilSk6e5a-lDwC_t-134">
          <mxGeometry relative="1" as="geometry" />
        </mxCell>
        <mxCell id="o8baBilSk6e5a-lDwC_t-131" value="while not connected" style="rounded=1;whiteSpace=wrap;html=1;" vertex="1" parent="o8baBilSk6e5a-lDwC_t-127">
          <mxGeometry x="50.5" y="109" width="128" height="40" as="geometry" />
        </mxCell>
        <mxCell id="o8baBilSk6e5a-lDwC_t-132" value="No" style="edgeStyle=orthogonalEdgeStyle;rounded=0;orthogonalLoop=1;jettySize=auto;html=1;exitX=1;exitY=0.5;exitDx=0;exitDy=0;entryX=0;entryY=0.5;entryDx=0;entryDy=0;" edge="1" parent="o8baBilSk6e5a-lDwC_t-127" source="o8baBilSk6e5a-lDwC_t-134" target="o8baBilSk6e5a-lDwC_t-136">
          <mxGeometry relative="1" as="geometry" />
        </mxCell>
        <mxCell id="o8baBilSk6e5a-lDwC_t-133" value="Yes" style="edgeStyle=orthogonalEdgeStyle;rounded=0;orthogonalLoop=1;jettySize=auto;html=1;exitX=0.5;exitY=1;exitDx=0;exitDy=0;entryX=0.5;entryY=0;entryDx=0;entryDy=0;" edge="1" parent="o8baBilSk6e5a-lDwC_t-127" source="o8baBilSk6e5a-lDwC_t-134" target="o8baBilSk6e5a-lDwC_t-152">
          <mxGeometry relative="1" as="geometry" />
        </mxCell>
        <mxCell id="o8baBilSk6e5a-lDwC_t-134" value="handshake received" style="rhombus;whiteSpace=wrap;html=1;" vertex="1" parent="o8baBilSk6e5a-lDwC_t-127">
          <mxGeometry x="65" y="217" width="99" height="80" as="geometry" />
        </mxCell>
        <mxCell id="o8baBilSk6e5a-lDwC_t-135" style="edgeStyle=orthogonalEdgeStyle;rounded=0;orthogonalLoop=1;jettySize=auto;html=1;exitX=0.5;exitY=0;exitDx=0;exitDy=0;entryX=0.5;entryY=1;entryDx=0;entryDy=0;" edge="1" parent="o8baBilSk6e5a-lDwC_t-127" source="o8baBilSk6e5a-lDwC_t-136" target="o8baBilSk6e5a-lDwC_t-150">
          <mxGeometry relative="1" as="geometry" />
        </mxCell>
        <mxCell id="o8baBilSk6e5a-lDwC_t-136" value="publish message to /deviceIds" style="rounded=1;whiteSpace=wrap;html=1;" vertex="1" parent="o8baBilSk6e5a-lDwC_t-127">
          <mxGeometry x="208" y="237" width="127" height="40" as="geometry" />
        </mxCell>
        <mxCell id="o8baBilSk6e5a-lDwC_t-137" style="edgeStyle=orthogonalEdgeStyle;rounded=0;orthogonalLoop=1;jettySize=auto;html=1;exitX=0.5;exitY=1;exitDx=0;exitDy=0;entryX=0.5;entryY=0;entryDx=0;entryDy=0;" edge="1" parent="o8baBilSk6e5a-lDwC_t-127" source="o8baBilSk6e5a-lDwC_t-138" target="o8baBilSk6e5a-lDwC_t-140">
          <mxGeometry relative="1" as="geometry" />
        </mxCell>
        <mxCell id="o8baBilSk6e5a-lDwC_t-138" value="while connected" style="rounded=1;whiteSpace=wrap;html=1;" vertex="1" parent="o8baBilSk6e5a-lDwC_t-127">
          <mxGeometry x="50.5" y="417" width="128" height="40" as="geometry" />
        </mxCell>
        <mxCell id="o8baBilSk6e5a-lDwC_t-139" style="edgeStyle=orthogonalEdgeStyle;rounded=0;orthogonalLoop=1;jettySize=auto;html=1;exitX=0.5;exitY=1;exitDx=0;exitDy=0;entryX=0.5;entryY=0;entryDx=0;entryDy=0;" edge="1" parent="o8baBilSk6e5a-lDwC_t-127" source="o8baBilSk6e5a-lDwC_t-140" target="o8baBilSk6e5a-lDwC_t-142">
          <mxGeometry relative="1" as="geometry" />
        </mxCell>
        <mxCell id="o8baBilSk6e5a-lDwC_t-140" value="randomize step size" style="rounded=1;whiteSpace=wrap;html=1;" vertex="1" parent="o8baBilSk6e5a-lDwC_t-127">
          <mxGeometry x="50.5" y="499" width="128" height="40" as="geometry" />
        </mxCell>
        <mxCell id="o8baBilSk6e5a-lDwC_t-154" style="edgeStyle=orthogonalEdgeStyle;rounded=0;orthogonalLoop=1;jettySize=auto;html=1;exitX=0.5;exitY=1;exitDx=0;exitDy=0;entryX=0.5;entryY=0;entryDx=0;entryDy=0;" edge="1" parent="o8baBilSk6e5a-lDwC_t-127" source="o8baBilSk6e5a-lDwC_t-142" target="o8baBilSk6e5a-lDwC_t-146">
          <mxGeometry relative="1" as="geometry" />
        </mxCell>
        <mxCell id="o8baBilSk6e5a-lDwC_t-142" value="randomize move direction" style="rounded=1;whiteSpace=wrap;html=1;" vertex="1" parent="o8baBilSk6e5a-lDwC_t-127">
          <mxGeometry x="50.5" y="564" width="128" height="40" as="geometry" />
        </mxCell>
        <mxCell id="o8baBilSk6e5a-lDwC_t-153" style="edgeStyle=orthogonalEdgeStyle;rounded=0;orthogonalLoop=1;jettySize=auto;html=1;exitX=0.5;exitY=1;exitDx=0;exitDy=0;entryX=0.5;entryY=0;entryDx=0;entryDy=0;" edge="1" parent="o8baBilSk6e5a-lDwC_t-127" source="o8baBilSk6e5a-lDwC_t-146" target="o8baBilSk6e5a-lDwC_t-148">
          <mxGeometry relative="1" as="geometry" />
        </mxCell>
        <mxCell id="o8baBilSk6e5a-lDwC_t-146" value="publish telemetry message in /{deviceName}/DeviceTelemetry" style="rounded=1;whiteSpace=wrap;html=1;" vertex="1" parent="o8baBilSk6e5a-lDwC_t-127">
          <mxGeometry x="25.13" y="632" width="178.75" height="52" as="geometry" />
        </mxCell>
        <mxCell id="o8baBilSk6e5a-lDwC_t-147" style="edgeStyle=orthogonalEdgeStyle;rounded=0;orthogonalLoop=1;jettySize=auto;html=1;exitX=1;exitY=0.5;exitDx=0;exitDy=0;entryX=0.5;entryY=0;entryDx=0;entryDy=0;" edge="1" parent="o8baBilSk6e5a-lDwC_t-127" source="o8baBilSk6e5a-lDwC_t-148" target="o8baBilSk6e5a-lDwC_t-140">
          <mxGeometry relative="1" as="geometry">
            <Array as="points">
              <mxPoint x="273" y="734" />
              <mxPoint x="273" y="477" />
              <mxPoint x="115" y="477" />
            </Array>
          </mxGeometry>
        </mxCell>
        <mxCell id="o8baBilSk6e5a-lDwC_t-148" value="rate.sleep" style="rounded=1;whiteSpace=wrap;html=1;" vertex="1" parent="o8baBilSk6e5a-lDwC_t-127">
          <mxGeometry x="50.5" y="714" width="128" height="40" as="geometry" />
        </mxCell>
        <mxCell id="o8baBilSk6e5a-lDwC_t-149" style="edgeStyle=orthogonalEdgeStyle;rounded=0;orthogonalLoop=1;jettySize=auto;html=1;exitX=0;exitY=0.5;exitDx=0;exitDy=0;entryX=0.5;entryY=0;entryDx=0;entryDy=0;" edge="1" parent="o8baBilSk6e5a-lDwC_t-127" source="o8baBilSk6e5a-lDwC_t-150" target="o8baBilSk6e5a-lDwC_t-134">
          <mxGeometry relative="1" as="geometry" />
        </mxCell>
        <mxCell id="o8baBilSk6e5a-lDwC_t-150" value="rate.sleep" style="rounded=1;whiteSpace=wrap;html=1;" vertex="1" parent="o8baBilSk6e5a-lDwC_t-127">
          <mxGeometry x="208" y="170" width="127" height="40" as="geometry" />
        </mxCell>
        <mxCell id="o8baBilSk6e5a-lDwC_t-151" style="edgeStyle=orthogonalEdgeStyle;rounded=0;orthogonalLoop=1;jettySize=auto;html=1;exitX=0.5;exitY=1;exitDx=0;exitDy=0;entryX=0.5;entryY=0;entryDx=0;entryDy=0;" edge="1" parent="o8baBilSk6e5a-lDwC_t-127" source="o8baBilSk6e5a-lDwC_t-152" target="o8baBilSk6e5a-lDwC_t-138">
          <mxGeometry relative="1" as="geometry" />
        </mxCell>
        <mxCell id="o8baBilSk6e5a-lDwC_t-152" value="connected = True" style="rounded=1;whiteSpace=wrap;html=1;" vertex="1" parent="o8baBilSk6e5a-lDwC_t-127">
          <mxGeometry x="50.5" y="342" width="128" height="40" as="geometry" />
        </mxCell>
        <mxCell id="o8baBilSk6e5a-lDwC_t-155" style="edgeStyle=orthogonalEdgeStyle;rounded=0;orthogonalLoop=1;jettySize=auto;html=1;exitX=0.5;exitY=1;exitDx=0;exitDy=0;entryX=0.5;entryY=0;entryDx=0;entryDy=0;" edge="1" parent="1" source="o8baBilSk6e5a-lDwC_t-156" target="o8baBilSk6e5a-lDwC_t-157">
          <mxGeometry relative="1" as="geometry" />
        </mxCell>
        <mxCell id="o8baBilSk6e5a-lDwC_t-156" value="&lt;b style=&quot;font-size: 20px;&quot;&gt;C&lt;/b&gt;" style="ellipse;whiteSpace=wrap;html=1;aspect=fixed;fontSize=20;labelBackgroundColor=none;fillColor=#f5f5f5;fontColor=#333333;strokeColor=#666666;strokeWidth=2;" vertex="1" parent="1">
          <mxGeometry x="-607.5" y="-1108" width="48" height="48" as="geometry" />
        </mxCell>
        <mxCell id="o8baBilSk6e5a-lDwC_t-157" value="LoraMaster.start" style="swimlane;whiteSpace=wrap;html=1;strokeWidth=3;fillColor=#ffe6cc;strokeColor=#d79b00;startSize=23;" vertex="1" parent="1">
          <mxGeometry x="-755" y="-1030" width="332" height="629" as="geometry" />
        </mxCell>
        <mxCell id="o8baBilSk6e5a-lDwC_t-158" style="edgeStyle=orthogonalEdgeStyle;rounded=0;orthogonalLoop=1;jettySize=auto;html=1;exitX=0.5;exitY=1;exitDx=0;exitDy=0;entryX=0.5;entryY=0;entryDx=0;entryDy=0;" edge="1" parent="o8baBilSk6e5a-lDwC_t-157" source="o8baBilSk6e5a-lDwC_t-159" target="o8baBilSk6e5a-lDwC_t-161">
          <mxGeometry relative="1" as="geometry" />
        </mxCell>
        <mxCell id="o8baBilSk6e5a-lDwC_t-159" value="subscribe to /{loraName}/handshake" style="rounded=1;whiteSpace=wrap;html=1;" vertex="1" parent="o8baBilSk6e5a-lDwC_t-157">
          <mxGeometry x="28" y="41" width="136" height="40" as="geometry" />
        </mxCell>
        <mxCell id="o8baBilSk6e5a-lDwC_t-160" style="edgeStyle=orthogonalEdgeStyle;rounded=0;orthogonalLoop=1;jettySize=auto;html=1;exitX=0.5;exitY=1;exitDx=0;exitDy=0;entryX=0.5;entryY=0;entryDx=0;entryDy=0;" edge="1" parent="o8baBilSk6e5a-lDwC_t-157" source="o8baBilSk6e5a-lDwC_t-161" target="o8baBilSk6e5a-lDwC_t-164">
          <mxGeometry relative="1" as="geometry" />
        </mxCell>
        <mxCell id="o8baBilSk6e5a-lDwC_t-161" value="while not connected" style="rounded=1;whiteSpace=wrap;html=1;" vertex="1" parent="o8baBilSk6e5a-lDwC_t-157">
          <mxGeometry x="31.5" y="109" width="128" height="40" as="geometry" />
        </mxCell>
        <mxCell id="o8baBilSk6e5a-lDwC_t-162" value="No" style="edgeStyle=orthogonalEdgeStyle;rounded=0;orthogonalLoop=1;jettySize=auto;html=1;exitX=1;exitY=0.5;exitDx=0;exitDy=0;entryX=0;entryY=0.5;entryDx=0;entryDy=0;" edge="1" parent="o8baBilSk6e5a-lDwC_t-157" source="o8baBilSk6e5a-lDwC_t-164" target="o8baBilSk6e5a-lDwC_t-166">
          <mxGeometry relative="1" as="geometry" />
        </mxCell>
        <mxCell id="o8baBilSk6e5a-lDwC_t-163" value="Yes" style="edgeStyle=orthogonalEdgeStyle;rounded=0;orthogonalLoop=1;jettySize=auto;html=1;exitX=0.5;exitY=1;exitDx=0;exitDy=0;entryX=0.5;entryY=0;entryDx=0;entryDy=0;" edge="1" parent="o8baBilSk6e5a-lDwC_t-157" source="o8baBilSk6e5a-lDwC_t-164" target="o8baBilSk6e5a-lDwC_t-180">
          <mxGeometry relative="1" as="geometry" />
        </mxCell>
        <mxCell id="o8baBilSk6e5a-lDwC_t-164" value="handshake received" style="rhombus;whiteSpace=wrap;html=1;" vertex="1" parent="o8baBilSk6e5a-lDwC_t-157">
          <mxGeometry x="46" y="217" width="99" height="80" as="geometry" />
        </mxCell>
        <mxCell id="o8baBilSk6e5a-lDwC_t-165" style="edgeStyle=orthogonalEdgeStyle;rounded=0;orthogonalLoop=1;jettySize=auto;html=1;exitX=0.5;exitY=0;exitDx=0;exitDy=0;entryX=0.5;entryY=1;entryDx=0;entryDy=0;" edge="1" parent="o8baBilSk6e5a-lDwC_t-157" source="o8baBilSk6e5a-lDwC_t-166" target="o8baBilSk6e5a-lDwC_t-178">
          <mxGeometry relative="1" as="geometry" />
        </mxCell>
        <mxCell id="o8baBilSk6e5a-lDwC_t-166" value="publish message to /loraIds" style="rounded=1;whiteSpace=wrap;html=1;" vertex="1" parent="o8baBilSk6e5a-lDwC_t-157">
          <mxGeometry x="189" y="237" width="114" height="40" as="geometry" />
        </mxCell>
        <mxCell id="o8baBilSk6e5a-lDwC_t-177" style="edgeStyle=orthogonalEdgeStyle;rounded=0;orthogonalLoop=1;jettySize=auto;html=1;exitX=0;exitY=0.5;exitDx=0;exitDy=0;entryX=0.5;entryY=0;entryDx=0;entryDy=0;" edge="1" parent="o8baBilSk6e5a-lDwC_t-157" source="o8baBilSk6e5a-lDwC_t-178" target="o8baBilSk6e5a-lDwC_t-164">
          <mxGeometry relative="1" as="geometry" />
        </mxCell>
        <mxCell id="o8baBilSk6e5a-lDwC_t-178" value="rate.sleep" style="rounded=1;whiteSpace=wrap;html=1;" vertex="1" parent="o8baBilSk6e5a-lDwC_t-157">
          <mxGeometry x="189" y="170" width="114" height="40" as="geometry" />
        </mxCell>
        <mxCell id="o8baBilSk6e5a-lDwC_t-179" style="edgeStyle=orthogonalEdgeStyle;rounded=0;orthogonalLoop=1;jettySize=auto;html=1;exitX=0.5;exitY=1;exitDx=0;exitDy=0;entryX=0.5;entryY=0;entryDx=0;entryDy=0;" edge="1" parent="o8baBilSk6e5a-lDwC_t-157" source="o8baBilSk6e5a-lDwC_t-180" target="o8baBilSk6e5a-lDwC_t-181">
          <mxGeometry relative="1" as="geometry">
            <mxPoint x="95.5" y="417" as="targetPoint" />
          </mxGeometry>
        </mxCell>
        <mxCell id="o8baBilSk6e5a-lDwC_t-180" value="connected = True" style="rounded=1;whiteSpace=wrap;html=1;" vertex="1" parent="o8baBilSk6e5a-lDwC_t-157">
          <mxGeometry x="31.5" y="342" width="128" height="40" as="geometry" />
        </mxCell>
        <mxCell id="o8baBilSk6e5a-lDwC_t-188" style="edgeStyle=orthogonalEdgeStyle;rounded=0;orthogonalLoop=1;jettySize=auto;html=1;exitX=0.5;exitY=1;exitDx=0;exitDy=0;entryX=0.5;entryY=0;entryDx=0;entryDy=0;" edge="1" parent="o8baBilSk6e5a-lDwC_t-157" source="o8baBilSk6e5a-lDwC_t-181" target="o8baBilSk6e5a-lDwC_t-184">
          <mxGeometry relative="1" as="geometry" />
        </mxCell>
        <mxCell id="o8baBilSk6e5a-lDwC_t-181" value="for number of lora clients" style="rounded=1;whiteSpace=wrap;html=1;" vertex="1" parent="o8baBilSk6e5a-lDwC_t-157">
          <mxGeometry x="24.75" y="417" width="141.5" height="40" as="geometry" />
        </mxCell>
        <mxCell id="o8baBilSk6e5a-lDwC_t-190" style="edgeStyle=orthogonalEdgeStyle;rounded=0;orthogonalLoop=1;jettySize=auto;html=1;exitX=0.5;exitY=1;exitDx=0;exitDy=0;entryX=0.5;entryY=0;entryDx=0;entryDy=0;" edge="1" parent="o8baBilSk6e5a-lDwC_t-157" source="o8baBilSk6e5a-lDwC_t-184" target="o8baBilSk6e5a-lDwC_t-189">
          <mxGeometry relative="1" as="geometry" />
        </mxCell>
        <mxCell id="o8baBilSk6e5a-lDwC_t-184" value="loop end" style="rhombus;whiteSpace=wrap;html=1;" vertex="1" parent="o8baBilSk6e5a-lDwC_t-157">
          <mxGeometry x="59.5" y="496.96" width="72" height="51" as="geometry" />
        </mxCell>
        <mxCell id="o8baBilSk6e5a-lDwC_t-185" style="edgeStyle=orthogonalEdgeStyle;rounded=0;orthogonalLoop=1;jettySize=auto;html=1;exitX=0.5;exitY=0;exitDx=0;exitDy=0;entryX=0.5;entryY=0;entryDx=0;entryDy=0;" edge="1" parent="o8baBilSk6e5a-lDwC_t-157" source="o8baBilSk6e5a-lDwC_t-186" target="o8baBilSk6e5a-lDwC_t-184">
          <mxGeometry relative="1" as="geometry">
            <Array as="points">
              <mxPoint x="253" y="475" />
              <mxPoint x="95" y="475" />
            </Array>
          </mxGeometry>
        </mxCell>
        <mxCell id="o8baBilSk6e5a-lDwC_t-192" style="edgeStyle=orthogonalEdgeStyle;rounded=0;orthogonalLoop=1;jettySize=auto;html=1;exitX=1;exitY=0.5;exitDx=0;exitDy=0;entryX=0;entryY=0.5;entryDx=0;entryDy=0;" edge="1" parent="o8baBilSk6e5a-lDwC_t-157" source="o8baBilSk6e5a-lDwC_t-186" target="o8baBilSk6e5a-lDwC_t-191">
          <mxGeometry relative="1" as="geometry" />
        </mxCell>
        <mxCell id="o8baBilSk6e5a-lDwC_t-186" value="instantiate lora client" style="rounded=1;whiteSpace=wrap;html=1;" vertex="1" parent="o8baBilSk6e5a-lDwC_t-157">
          <mxGeometry x="200.5" y="502.46" width="104" height="40" as="geometry" />
        </mxCell>
        <mxCell id="o8baBilSk6e5a-lDwC_t-182" value="No" style="edgeStyle=orthogonalEdgeStyle;rounded=0;orthogonalLoop=1;jettySize=auto;html=1;exitX=1;exitY=0.5;exitDx=0;exitDy=0;entryX=0;entryY=0.5;entryDx=0;entryDy=0;" edge="1" parent="o8baBilSk6e5a-lDwC_t-157" source="o8baBilSk6e5a-lDwC_t-184" target="o8baBilSk6e5a-lDwC_t-186">
          <mxGeometry relative="1" as="geometry" />
        </mxCell>
        <mxCell id="o8baBilSk6e5a-lDwC_t-189" value="" style="shape=sumEllipse;perimeter=ellipsePerimeter;html=1;backgroundOutline=1;" vertex="1" parent="o8baBilSk6e5a-lDwC_t-157">
          <mxGeometry x="80.5" y="576" width="30" height="30" as="geometry" />
        </mxCell>
        <mxCell id="o8baBilSk6e5a-lDwC_t-191" value="&lt;b style=&quot;font-size: 20px;&quot;&gt;C1&lt;/b&gt;" style="ellipse;whiteSpace=wrap;html=1;aspect=fixed;fontSize=20;labelBackgroundColor=none;fillColor=#f5f5f5;fontColor=#333333;strokeColor=#666666;strokeWidth=2;" vertex="1" parent="o8baBilSk6e5a-lDwC_t-157">
          <mxGeometry x="356.5" y="498.46000000000004" width="48" height="48" as="geometry" />
        </mxCell>
        <mxCell id="o8baBilSk6e5a-lDwC_t-219" style="edgeStyle=orthogonalEdgeStyle;rounded=0;orthogonalLoop=1;jettySize=auto;html=1;exitX=0.5;exitY=1;exitDx=0;exitDy=0;entryX=0.5;entryY=0;entryDx=0;entryDy=0;" edge="1" parent="1" source="o8baBilSk6e5a-lDwC_t-194" target="o8baBilSk6e5a-lDwC_t-195">
          <mxGeometry relative="1" as="geometry" />
        </mxCell>
        <mxCell id="o8baBilSk6e5a-lDwC_t-194" value="&lt;b style=&quot;font-size: 20px;&quot;&gt;C1&lt;/b&gt;" style="ellipse;whiteSpace=wrap;html=1;aspect=fixed;fontSize=20;labelBackgroundColor=none;fillColor=#f5f5f5;fontColor=#333333;strokeColor=#666666;strokeWidth=2;" vertex="1" parent="1">
          <mxGeometry x="-233.5" y="-1108" width="48" height="48" as="geometry" />
        </mxCell>
        <mxCell id="o8baBilSk6e5a-lDwC_t-195" value="LoraClient.start" style="swimlane;whiteSpace=wrap;html=1;strokeWidth=3;fillColor=#ffe6cc;strokeColor=#d79b00;startSize=23;" vertex="1" parent="1">
          <mxGeometry x="-343" y="-1030" width="267" height="406" as="geometry" />
        </mxCell>
        <mxCell id="o8baBilSk6e5a-lDwC_t-205" style="edgeStyle=orthogonalEdgeStyle;rounded=0;orthogonalLoop=1;jettySize=auto;html=1;exitX=0.5;exitY=1;exitDx=0;exitDy=0;entryX=0.5;entryY=0;entryDx=0;entryDy=0;" edge="1" parent="o8baBilSk6e5a-lDwC_t-195" source="o8baBilSk6e5a-lDwC_t-206" target="o8baBilSk6e5a-lDwC_t-208">
          <mxGeometry relative="1" as="geometry" />
        </mxCell>
        <mxCell id="o8baBilSk6e5a-lDwC_t-206" value="while true" style="rounded=1;whiteSpace=wrap;html=1;" vertex="1" parent="o8baBilSk6e5a-lDwC_t-195">
          <mxGeometry x="45.37" y="45" width="128" height="40" as="geometry" />
        </mxCell>
        <mxCell id="o8baBilSk6e5a-lDwC_t-207" style="edgeStyle=orthogonalEdgeStyle;rounded=0;orthogonalLoop=1;jettySize=auto;html=1;exitX=0.5;exitY=1;exitDx=0;exitDy=0;entryX=0.5;entryY=0;entryDx=0;entryDy=0;" edge="1" parent="o8baBilSk6e5a-lDwC_t-195" source="o8baBilSk6e5a-lDwC_t-208" target="o8baBilSk6e5a-lDwC_t-210">
          <mxGeometry relative="1" as="geometry" />
        </mxCell>
        <mxCell id="o8baBilSk6e5a-lDwC_t-208" value="randomize step size" style="rounded=1;whiteSpace=wrap;html=1;" vertex="1" parent="o8baBilSk6e5a-lDwC_t-195">
          <mxGeometry x="45.37" y="127" width="128" height="40" as="geometry" />
        </mxCell>
        <mxCell id="o8baBilSk6e5a-lDwC_t-209" style="edgeStyle=orthogonalEdgeStyle;rounded=0;orthogonalLoop=1;jettySize=auto;html=1;exitX=0.5;exitY=1;exitDx=0;exitDy=0;entryX=0.5;entryY=0;entryDx=0;entryDy=0;" edge="1" parent="o8baBilSk6e5a-lDwC_t-195" source="o8baBilSk6e5a-lDwC_t-210" target="o8baBilSk6e5a-lDwC_t-212">
          <mxGeometry relative="1" as="geometry" />
        </mxCell>
        <mxCell id="o8baBilSk6e5a-lDwC_t-210" value="randomize move direction" style="rounded=1;whiteSpace=wrap;html=1;" vertex="1" parent="o8baBilSk6e5a-lDwC_t-195">
          <mxGeometry x="45.37" y="192" width="128" height="40" as="geometry" />
        </mxCell>
        <mxCell id="o8baBilSk6e5a-lDwC_t-211" style="edgeStyle=orthogonalEdgeStyle;rounded=0;orthogonalLoop=1;jettySize=auto;html=1;exitX=0.5;exitY=1;exitDx=0;exitDy=0;entryX=0.5;entryY=0;entryDx=0;entryDy=0;" edge="1" parent="o8baBilSk6e5a-lDwC_t-195" source="o8baBilSk6e5a-lDwC_t-212" target="o8baBilSk6e5a-lDwC_t-214">
          <mxGeometry relative="1" as="geometry" />
        </mxCell>
        <mxCell id="o8baBilSk6e5a-lDwC_t-212" value="publish telemetry message in /{loraName}/loremetry" style="rounded=1;whiteSpace=wrap;html=1;" vertex="1" parent="o8baBilSk6e5a-lDwC_t-195">
          <mxGeometry x="20" y="260" width="178.75" height="52" as="geometry" />
        </mxCell>
        <mxCell id="o8baBilSk6e5a-lDwC_t-213" style="edgeStyle=orthogonalEdgeStyle;rounded=0;orthogonalLoop=1;jettySize=auto;html=1;exitX=1;exitY=0.5;exitDx=0;exitDy=0;entryX=0.5;entryY=0;entryDx=0;entryDy=0;" edge="1" parent="o8baBilSk6e5a-lDwC_t-195" source="o8baBilSk6e5a-lDwC_t-214" target="o8baBilSk6e5a-lDwC_t-208">
          <mxGeometry relative="1" as="geometry">
            <Array as="points">
              <mxPoint x="239" y="362" />
              <mxPoint x="239" y="105" />
              <mxPoint x="109" y="105" />
            </Array>
          </mxGeometry>
        </mxCell>
        <mxCell id="o8baBilSk6e5a-lDwC_t-214" value="rate.sleep" style="rounded=1;whiteSpace=wrap;html=1;" vertex="1" parent="o8baBilSk6e5a-lDwC_t-195">
          <mxGeometry x="45.37" y="342" width="128" height="40" as="geometry" />
        </mxCell>
      </root>
    </mxGraphModel>
  </diagram>
</mxfile>
